<svg width="50" height="38" fill="none" xmlns="http://www.w3.org/2000/svg"><path d="M43.92.122H6.08A6.087 6.087 0 000 6.202v25.597a6.087 6.087 0 006.08 6.08h37.84a6.087 6.087 0 006.08-6.08V6.2A6.087 6.087 0 0043.92.12zm-2.913 2.04l-16.02 12.95L8.964 2.162h32.042zm.802 33.676H8.163V12.006l16.183 13.036a1.02 1.02 0 001.28 0L41.81 12.006v23.832zm6.15-4.04a4.044 4.044 0 01-4.039 4.04h-.07V9.874a1.02 1.02 0 00-1.66-.795L24.986 22.937 7.783 9.08a1.02 1.02 0 00-1.66.795v25.964H6.08a4.043 4.043 0 01-4.04-4.04V6.202a4.043 4.043 0 013.698-4.023l18.607 15.04a1.019 1.019 0 001.283 0L44.237 2.176A4.044 4.044 0 0147.959 6.2v25.6z" fill="#6D55BD"/></svg>