<svg width="126" height="125" fill="none" xmlns="http://www.w3.org/2000/svg"><path d="M85.867 4.478a1.953 1.953 0 00-1.381-.572H29.798a13.688 13.688 0 00-13.671 13.672v89.844a13.687 13.687 0 0013.671 13.672h66.407a13.69 13.69 0 0013.672-13.672V29.297a1.957 1.957 0 00-.573-1.381L85.867 4.478zm.572 6.097l16.769 16.769h-7.003a9.777 9.777 0 01-9.766-9.766v-7.003zm-56.64-2.762h52.734v9.765A13.687 13.687 0 0096.205 31.25h9.765v54.688H20.033v-68.36a9.776 9.776 0 019.765-9.765zm66.406 109.375H29.798a9.777 9.777 0 01-9.765-9.766V89.844h85.937v17.578a9.776 9.776 0 01-9.765 9.766z" fill="#FBFBFA"/><path d="M41.516 93.75a1.953 1.953 0 00-1.953 1.953v5.859h-3.907v-5.859a1.953 1.953 0 10-3.906 0v15.625a1.952 1.952 0 103.906 0v-5.859h3.907v5.859a1.952 1.952 0 103.906 0V95.703a1.953 1.953 0 00-1.953-1.953zm15.624 0h-7.812a1.953 1.953 0 100 3.906h1.953v13.672a1.952 1.952 0 103.906 0V97.656h1.953a1.953 1.953 0 100-3.906zm19.981.052a1.953 1.953 0 00-2.195 1.028l-4.113 8.224L66.7 94.83a1.953 1.953 0 00-3.7.873v15.625a1.953 1.953 0 103.907 0v-7.351l2.16 4.318a1.95 1.95 0 003.494 0l2.158-4.318v7.351a1.952 1.952 0 103.907 0V95.703a1.953 1.953 0 00-1.505-1.9zm15.176 15.573h-5.86V95.703a1.953 1.953 0 10-3.906 0v15.625a1.952 1.952 0 001.953 1.953h7.813a1.954 1.954 0 000-3.906zM47.948 63.881a1.953 1.953 0 002.762-2.762L40.372 50.781 50.71 40.444a1.953 1.953 0 00-2.762-2.763l-11.72 11.72a1.955 1.955 0 000 2.761l11.72 11.72zm27.344 0a1.955 1.955 0 002.763 0l11.718-11.719a1.956 1.956 0 000-2.762L78.055 37.681a1.954 1.954 0 00-2.763 2.763L85.63 50.78 75.292 61.12a1.952 1.952 0 000 2.762zm-18.769 6.331a1.95 1.95 0 002.47-1.235l11.72-35.156a1.953 1.953 0 10-3.706-1.236l-11.72 35.157a1.953 1.953 0 001.236 2.47z" fill="#6D55BD"/></svg>