<svg width="125" height="125" fill="none" xmlns="http://www.w3.org/2000/svg"><path d="M85.368 4.478a1.953 1.953 0 00-1.382-.572H29.3a13.687 13.687 0 00-13.672 13.672v89.844A13.686 13.686 0 0029.3 121.094h66.406a13.687 13.687 0 0013.672-13.672V29.297a1.957 1.957 0 00-.572-1.381L85.367 4.478zm.572 6.097l16.769 16.769h-7.004a9.777 9.777 0 01-9.766-9.766v-7.003zM29.298 7.813h52.734v9.765A13.687 13.687 0 0095.705 31.25h9.766v54.688H19.533v-68.36A9.776 9.776 0 0129.3 7.813zm66.406 109.375H29.3a9.777 9.777 0 01-9.766-9.766V89.844h85.938v17.578a9.777 9.777 0 01-9.766 9.766z" fill="#FBFBFA"/><path d="M58.594 93.75a1.953 1.953 0 00-1.953 1.953v11.719a1.952 1.952 0 11-3.907 0 1.952 1.952 0 10-3.906 0 5.859 5.859 0 0011.719 0V95.703a1.953 1.953 0 00-1.953-1.953zm11.72 3.906h3.906a1.953 1.953 0 100-3.906h-3.906a5.86 5.86 0 100 11.719 1.954 1.954 0 011.38 3.334 1.954 1.954 0 01-1.38.572h-3.907a1.954 1.954 0 000 3.906h3.907a5.859 5.859 0 100-11.719 1.95 1.95 0 01-1.954-1.953 1.953 1.953 0 011.954-1.953zm0-42.968a1.953 1.953 0 100-3.907 1.953 1.953 0 000 3.907zm-15.626 0a1.953 1.953 0 100-3.907 1.953 1.953 0 000 3.907zm7.813 0a1.953 1.953 0 100-3.907 1.953 1.953 0 000 3.907zm-25.391 0a1.955 1.955 0 011.953 1.953v7.812a5.866 5.866 0 005.86 5.86 1.953 1.953 0 000-3.907 1.955 1.955 0 01-1.953-1.953v-7.812a5.834 5.834 0 00-1.496-3.907 5.834 5.834 0 001.496-3.906v-7.812a1.956 1.956 0 011.953-1.953 1.953 1.953 0 000-3.907 5.867 5.867 0 00-5.86 5.86v7.812a1.956 1.956 0 01-1.953 1.953 1.953 1.953 0 000 3.907zm44.922 9.765a1.955 1.955 0 01-1.953 1.953 1.953 1.953 0 000 3.906 5.866 5.866 0 005.859-5.859v-7.812a1.955 1.955 0 011.953-1.953 1.953 1.953 0 000-3.907 1.955 1.955 0 01-1.953-1.953v-7.812a5.866 5.866 0 00-5.86-5.86 1.954 1.954 0 000 3.907 1.955 1.955 0 011.954 1.953v7.812a5.835 5.835 0 001.495 3.906 5.835 5.835 0 00-1.495 3.907v7.812z" fill="#6D55BD"/></svg>