<svg viewBox="0 0 64 64" xmlns="http://www.w3.org/2000/svg"><defs><style>.cls-2,.cls-3{fill:#803cbf}.cls-3{fill-rule:evenodd}</style></defs><g id="Mercury"><circle cx="32" cy="32" r="28" fill="#ae66d3"/><path class="cls-2" d="M30.34 20.49c1.57 0 2.86.79 2.86 1.77S31.91 24 30.34 24s-2.86-.79-2.86-1.77 1.28-1.74 2.86-1.74z"/><path class="cls-3" d="M4.73 28.68h54.54a1 1 0 000-2H4.73a1 1 0 000 2zm52.66-9.48H37.27a8 8 0 00-6.93-3.3 8 8 0 00-6.94 3.3h-5.85a1 1 0 000 2H24a1 1 0 00.9-.56s1.4-2.74 5.48-2.74 5.47 2.74 5.47 2.74a1 1 0 00.9.56h20.64a1 1 0 000-2zm-44.76 0h-6a1 1 0 100 2h6a1 1 0 000-2zM60 32.7h-8a1 1 0 100 2h8a1 1 0 000-2zm-12.83 0h-5.91a1 1 0 000 2h5.91a1 1 0 000-2zm-18.87 0H4a1 1 0 000 2h24.3a1 1 0 000-2zm30.87 5.05H40a1 1 0 000 2h19.2a1 1 0 000-2zm-24.06 0H29.2a1 1 0 000 2h5.91a1 1 0 000-2zm-11.42 0H4.83a1 1 0 100 2h18.86a1 1 0 000-2zm14.36-12.92h8.35a1 1 0 000-2h-8.35a1 1 0 000 2zM6.52 44.61h23a1.71 1.71 0 010 3.41h-6.63a1 1 0 100 2h6.61a3.71 3.71 0 000-7.41h-23a1 1 0 100 2z"/><path class="cls-3" d="M17.84 48H9.77a1 1 0 000 2h8.07a1 1 0 000-2zm19.05 3.44h16.18a1 1 0 000-2H36.89a1 1 0 000 2zm19.62-6.91h-6.07a1 1 0 000 2h6.07a1 1 0 000-2zm-13.41 0h-6.83a1 1 0 000 2h6.83a1 1 0 000-2zm.35-1.22h4.88a1 1 0 000-2h-4.88a1 1 0 000 2zm8.22-31.77H41.16a1 1 0 000 2h10.51a1 1 0 000-2zm-16.17 0H21.43a1 1 0 000 2H35.5a1 1 0 000-2zm-17.88 0h-5.19a1 1 0 000 2h5.19a1 1 0 000-2zM45.6 6.52h-8.69a1 1 0 000 2h8.69a1 1 0 000-2zm-14.35 0H27.1a1 1 0 000 2h4.15a1 1 0 000-2zm-7.96 0H18.4a1 1 0 000 2h4.89a1 1 0 000-2zM45.6 55.48h-8.69a1 1 0 000 2h8.69a1 1 0 000-2zm-14.35 0H27.1a1 1 0 000 2h4.15a1 1 0 000-2zm-7.96 0H18.4a1 1 0 000 2h4.89a1 1 0 000-2zm-.84-1.88h6.76a1 1 0 000-2h-6.76a1 1 0 100 2z"/><path class="cls-2" d="M32 61a29 29 0 1129-29 29 29 0 01-29 29zm0-56a27 27 0 1027 27A27 27 0 0032 5z" id="path3612"/></g></svg>