<svg height="512" width="512" xmlns="http://www.w3.org/2000/svg"><path d="M240 287v-30c0-41.355-33.645-75-75-75H90v105c0 41.355 33.645 75 75 75s75-33.645 75-75zm-75-75c19.557 0 36.239 12.539 42.43 30H165c-19.557 0-36.239-12.539-42.43-30zm0 120c-24.813 0-45-20.187-45-45v-30.041C132.544 266.397 148.129 272 165 272h45v15c0 24.813-20.187 45-45 45zm105 52.74V362H60v22.74C22.782 409.67 0 451.907 0 497v15h330v-15c0-45.093-22.782-87.33-60-112.26zM31.086 482C34.3 459.908 44.526 439.425 60 423.566V482zM240 482H90v-90h150zm30 0v-58.434c15.474 15.859 25.7 36.342 28.914 58.434zm66.394-417.607L295.787 105l40.607 40.607 21.212-21.214L338.213 105l19.393-19.393zm60 21.214L415.787 105l-19.393 19.393 21.212 21.214L458.213 105l-40.607-40.607z"/><path d="M467 0H287c-24.813 0-45 20.187-45 45v120c0 24.813 20.187 45 45 45h15v77.805L391.962 210H467c24.813 0 45-20.187 45-45V45c0-24.813-20.187-45-45-45zm15 165c0 8.271-6.729 15-15 15h-86.212L332 222.195V180h-45c-8.271 0-15-6.729-15-15V45c0-8.271 6.729-15 15-15h180c8.271 0 15 6.729 15 15z"/></svg>