<svg width="50" height="36" fill="none" xmlns="http://www.w3.org/2000/svg"><path d="M49.228 1.458C48.618.84 47.702.5 46.652.5c-.571 0-1.176.1-1.798.296L2.53 14.163c-2.246.71-2.549 1.774-2.53 2.345.02.571.395 1.62 2.686 2.223l.042.01 8.779 2.079 4.748 11.233c.647 1.53 2.1 2.482 3.792 2.482 1.067 0 2.116-.37 3.035-1.07l5.43-4.136 7.876 5.247.003.002.075.05.02.013c.876.562 1.832.859 2.765.859 1.824 0 3.277-1.117 3.7-2.845l6.934-28.331c.279-1.137.046-2.155-.657-2.866zM14.444 20.425l16.937-7.16-10.546 9.273a1.167 1.167 0 00-.356.54l-2.033 6.815-4.002-9.468zm6.653 11.258c-.07.053-.14.1-.211.145l1.887-6.323 3.432 2.287-5.108 3.89zm25.917-27.84l-6.934 28.33c-.067.272-.28.903-.829.903-.27 0-.61-.122-.96-.344l-8.924-5.946-.004-.002-5.31-3.538 15.25-13.409c.488-.429.532-1.086.105-1.558-.428-.472-1.204-.62-1.838-.352L12.486 18.53l-8.898-2.106L45.898 3.06a2.54 2.54 0 01.754-.137c.09 0 .249.009.308.07.078.078.177.346.054.848z" fill="#6D55BD"/></svg>