<svg width="125" height="125" fill="none" xmlns="http://www.w3.org/2000/svg"><path d="M12.918 20.386a5.496 5.496 0 00-5.486 5.493 5.496 5.496 0 005.486 5.493 5.495 5.495 0 005.486-5.493c0-3.03-2.46-5.493-5.486-5.493zm0 7.324a1.83 1.83 0 01-1.824-1.831 1.83 1.83 0 011.825-1.831 1.83 1.83 0 011.823 1.83 1.83 1.83 0 01-1.824 1.832zm15.839-7.324a5.496 5.496 0 00-5.487 5.493 5.496 5.496 0 005.487 5.493 5.496 5.496 0 005.486-5.493 5.496 5.496 0 00-5.486-5.493zm0 7.324a1.83 1.83 0 01-1.824-1.831 1.83 1.83 0 011.824-1.831 1.83 1.83 0 011.824 1.83 1.83 1.83 0 01-1.824 1.832zm15.382-7.324a5.496 5.496 0 00-5.487 5.493 5.496 5.496 0 005.487 5.493 5.496 5.496 0 005.486-5.493 5.495 5.495 0 00-5.486-5.493zm0 7.324a1.83 1.83 0 01-1.825-1.831 1.83 1.83 0 011.825-1.831 1.83 1.83 0 011.824 1.83 1.83 1.83 0 01-1.824 1.832zm73.013-1.831a5.495 5.495 0 00-5.486-5.493h-51.17a5.496 5.496 0 00-5.487 5.493 5.496 5.496 0 005.486 5.493h51.171a5.496 5.496 0 005.486-5.493zm-5.486 1.831h-51.17a1.83 1.83 0 01-1.825-1.831 1.83 1.83 0 011.824-1.831h51.171a1.83 1.83 0 011.824 1.83 1.83 1.83 0 01-1.824 1.832z" fill="#FBFBFA"/><path d="M98.583 83.602a1.831 1.831 0 00-2.995 2.108l4.583 6.514c.584.792.371 2.001-.444 2.55-.796.583-2.001.37-2.553-.444L86.163 78.677a3.056 3.056 0 00-2.495-1.295h-.001c-.992 0-1.924.484-2.495 1.294L70.146 94.328c-.555.816-1.758 1.03-2.555.445a1.833 1.833 0 01-.442-2.552l13.043-18.516a3.06 3.06 0 00.001-3.513L69.159 54.506a1.834 1.834 0 01.443-2.55 1.836 1.836 0 012.553.442l9.022 12.825a3.056 3.056 0 002.495 1.296c.992 0 1.925-.484 2.496-1.294l9.035-12.828c.551-.816 1.759-1.025 2.552-.44.817.55 1.027 1.757.443 2.55l-11.05 15.689a3.059 3.059 0 00-.002 3.513l3.524 5.008a1.83 1.83 0 102.994-2.107l-3.276-4.656 10.804-15.338c1.751-2.379 1.121-6.005-1.329-7.654-2.377-1.75-6.004-1.123-7.654 1.326l-8.536 12.119-8.523-12.116a5.504 5.504 0 00-7.654-1.332 5.5 5.5 0 00-1.333 7.653L76.95 71.947 64.155 90.112a5.5 5.5 0 001.327 7.655c2.386 1.75 5.992 1.117 7.656-1.327l10.528-14.946L94.18 96.437c1.654 2.445 5.269 3.08 7.654 1.332 2.45-1.648 3.083-5.275 1.332-7.653l-4.582-6.514zM53.998 47.96a5.5 5.5 0 00-5.493 5.492v27.375c0 1.87-.533 4.048-4.483 6.038-1.21.609-2.584.918-4.1.918-1.657-.002-3.094-.407-4.391-1.236-3.09-1.974-3.712-3.641-3.712-5.692v-12.74a1.83 1.83 0 10-3.662 0v12.74c0 3.734 1.616 6.36 5.402 8.779 1.903 1.215 3.983 1.808 6.378 1.811 2.078 0 4.007-.44 5.732-1.31 4.373-2.202 6.498-5.246 6.498-9.308V53.452a1.832 1.832 0 013.662 0v27.375c0 5.502-2.864 9.734-8.513 12.579-2.241 1.129-4.724 1.7-7.38 1.7h-.025c-3.05-.003-5.85-.806-8.324-2.386-4.838-3.092-7.092-6.862-7.092-11.865V53.452a1.83 1.83 0 013.662 0v6.118a1.831 1.831 0 103.662 0v-6.118a5.5 5.5 0 00-5.493-5.493 5.5 5.5 0 00-5.494 5.493v27.404c0 6.196 2.956 11.226 8.784 14.95 3.07 1.961 6.532 2.958 10.293 2.963h.028c3.232 0 6.27-.704 9.026-2.092 8.701-4.382 10.528-11.038 10.528-15.85V53.452a5.499 5.499 0 00-5.493-5.493z" fill="#6D55BD"/><path d="M115.845 13.184H9.155C4.107 13.184 0 17.29 0 22.339v80.322c0 5.048 4.107 9.155 9.155 9.155h106.69c5.048 0 9.155-4.107 9.155-9.155V22.339c0-5.048-4.107-9.155-9.155-9.155zm0 94.97H9.155a5.5 5.5 0 01-5.493-5.493V38.696h103.272a1.831 1.831 0 000-3.662H3.662V22.34a5.5 5.5 0 015.493-5.493h106.69a5.5 5.5 0 015.493 5.493v12.695h-5.859a1.831 1.831 0 100 3.662h5.859v63.965a5.499 5.499 0 01-5.493 5.493z" fill="#FBFBFA"/></svg>