<svg width="50" height="30" fill="none" xmlns="http://www.w3.org/2000/svg"><path d="M25.302 30c7.233 0 4.654-4.396 5.212-5.66-.008-.944-.016-1.852.017-2.404.458.124 1.54.65 3.773 2.734 3.448 3.34 4.329 5.33 7.114 5.33h5.127c1.625 0 2.471-.646 2.894-1.188.408-.524.808-1.444.37-2.876-1.143-3.448-7.814-9.402-8.228-10.03.062-.116.162-.27.214-.35h-.004c1.317-1.67 6.342-8.898 7.081-11.79a.036.036 0 00.005-.016c.4-1.32.033-2.176-.346-2.66C47.96.366 47.05 0 45.825 0h-5.128c-1.716 0-3.018.83-3.677 2.344-1.102 2.69-4.197 8.222-6.518 10.18-.071-2.774-.023-4.892.014-6.466.075-3.07.317-6.058-3.002-6.058h-8.058c-2.08 0-4.069 2.18-1.915 4.768 1.884 2.268.677 3.532 1.084 9.824-1.584-1.63-4.4-6.032-6.392-11.658C11.675 1.412 10.83.002 8.448.002H3.32C1.24.002 0 1.09 0 2.912 0 7.004 9.435 30 25.302 30zM8.448 3.002c.452 0 .498 0 .833.914 2.04 5.766 6.615 14.298 9.956 14.298 2.51 0 2.51-2.47 2.51-3.4l-.001-7.404c-.138-2.45-1.067-3.67-1.677-4.41l7.308.008c.004.034-.042 8.19.02 10.166 0 2.806 2.321 4.414 5.944.894 3.823-4.142 6.467-10.334 6.573-10.586.156-.36.292-.482.783-.482h5.148l-.004.018c-.469 2.1-5.096 8.792-6.644 10.87-.025.032-.047.066-.07.1-.682 1.068-1.236 2.248.093 3.908h.002c.121.14.436.468.894.924 1.425 1.412 6.313 6.24 6.746 8.16-.288.044-.6.012-5.444.022-1.03 0-1.837-1.48-4.914-4.46-2.767-2.584-4.563-3.64-6.198-3.64-3.175 0-2.944 2.474-2.915 5.466.01 3.244-.01 2.218.013 2.422-.186.07-.717.21-2.102.21C12.083 27 3.475 6.858 3.144 3.008c.114-.01 1.691-.004 5.304-.006z" fill="#6D55BD"/></svg>