<svg height="512" viewBox="0 0 256 256" width="512" xmlns="http://www.w3.org/2000/svg"><switch><g><circle cx="128" cy="128" fill="#382b73" r="120"/><circle cx="128" cy="128" fill="#473080" r="102.5"/><path d="M199.243 180.566a5.396 5.396 0 00.5-2.261c0-.272-.027-.537-.065-.798v-.002a5.325 5.325 0 00-.112-.554v-.001a5.41 5.41 0 00-5.235-4.058h-10.208a3.663 3.663 0 003.663-3.663V89.946a3.664 3.664 0 00-3.663-3.664H71.878a3.663 3.663 0 00-3.663 3.664v79.283a3.663 3.663 0 003.663 3.663H61.67a5.41 5.41 0 00-5.068 3.525v.001c-.065.174-.12.351-.167.533v.001a5.325 5.325 0 00-.112.554v.002a5.38 5.38 0 00-.065.798 5.374 5.374 0 00.5 2.261c.165.358.368.694.603 1.004.15.197.308.388.483.563a5.402 5.402 0 003.828 1.585h132.66a5.419 5.419 0 002.107-.425 5.465 5.465 0 001.72-1.16 5.568 5.568 0 001.084-1.568z" fill="#382b73"/><path d="M184.122 165.892H71.878a3.663 3.663 0 01-3.663-3.664V82.946a3.663 3.663 0 013.663-3.663h112.244a3.663 3.663 0 013.663 3.663v79.283a3.662 3.662 0 01-3.663 3.663z" fill="#009add"/><path d="M129.594 82.979a1.594 1.594 0 11-3.187-.001 1.594 1.594 0 013.187.001z" fill="#136da0"/><path d="M194.33 176.718H61.67a5.413 5.413 0 010-10.826h132.66a5.413 5.413 0 010 10.826z" fill="#27c1e6"/><path d="M199.743 171.305a6.15 6.15 0 00-.065-.799 5.34 5.34 0 00-.28-1.089c-.664 1.97-2.242 3.365-4.098 3.365H60.701c-1.857 0-3.434-1.395-4.098-3.365-.13.348-.224.712-.28 1.089a6.15 6.15 0 00-.065.799 5.412 5.412 0 005.413 5.413h132.66a5.413 5.413 0 005.412-5.413z" fill="#009add"/><path d="M139.857 162.674h-23.713a1.07 1.07 0 01-1.07-1.07v-.222c0-.591.479-1.07 1.07-1.07h23.713c.591 0 1.07.479 1.07 1.07v.222a1.07 1.07 0 01-1.07 1.07z" fill="#1caee4"/><path d="M179.046 156.671H76.954a1.832 1.832 0 01-1.832-1.832V88.503c0-1.012.82-1.832 1.832-1.832h102.093c1.012 0 1.832.82 1.832 1.832v66.336a1.833 1.833 0 01-1.833 1.832z" fill="#ef5a9d"/><path d="M179.046 86.672H76.954c-1.012 0-1.832.82-1.832 1.832v4c0-1.012.82-1.832 1.832-1.832h102.093c1.012 0 1.832.82 1.832 1.832v-4a1.833 1.833 0 00-1.833-1.832z" fill="#a72973"/><path d="M111.711 104.412c.191-.289.318-.607.381-.935s.063-.666 0-.994a2.588 2.588 0 00-.714-1.343l-.011-.009a2.66 2.66 0 00-.386-.315c-.048-.032-.1-.053-.149-.082-.095-.055-.189-.11-.289-.152-.061-.026-.124-.041-.186-.061-.093-.031-.185-.063-.28-.083-.068-.014-.136-.02-.205-.028-.092-.012-.183-.024-.276-.026-.071-.002-.141.005-.212.009-.09.005-.18.011-.27.026-.072.012-.141.03-.212.048a2.623 2.623 0 00-.258.076c-.069.025-.136.056-.204.087a2.297 2.297 0 00-.43.254c-.038.028-.079.048-.116.077l.01.009c-.07.057-.144.106-.209.171l-11.101 11.101a2.602 2.602 0 00.001 3.681l11.101 11.1c.065.065.139.114.208.17l-.01.009c.039.032.083.055.124.084.054.039.107.077.163.111.086.052.173.097.263.139.056.026.111.054.168.076.1.038.202.065.305.09.05.012.099.029.15.038.155.028.311.045.468.045.083 0 .166-.016.248-.024.415-.04.823-.167 1.184-.405a2.669 2.669 0 00.742-.742 2.605 2.605 0 00-.334-3.273l-9.26-9.26 9.261-9.26c.129-.127.24-.264.335-.409zm47.694 7.829l-11.101-11.101c-.065-.065-.139-.114-.209-.171l.01-.009c-.037-.03-.079-.05-.117-.078a2.585 2.585 0 00-.431-.253c-.067-.031-.134-.062-.203-.087a2.568 2.568 0 00-.259-.077c-.071-.018-.14-.036-.211-.047a2.442 2.442 0 00-.27-.026c-.071-.004-.141-.01-.212-.009-.093.002-.184.014-.276.026-.069.009-.137.014-.205.028-.095.02-.187.052-.28.083-.062.021-.125.036-.186.061-.1.042-.194.097-.289.152-.049.029-.101.05-.149.082a2.6 2.6 0 00-.385.315l-.011.009a2.588 2.588 0 00-.714 1.343 2.61 2.61 0 00.714 2.337l9.261 9.26-9.26 9.26a2.603 2.603 0 00.408 4.015c.361.238.769.365 1.184.405.083.008.165.024.248.024.157 0 .313-.017.467-.045.051-.009.1-.026.15-.038a2.73 2.73 0 00.305-.09c.057-.022.112-.05.168-.076a2.448 2.448 0 00.426-.25c.041-.029.085-.052.124-.084l-.01-.009c.07-.057.144-.105.209-.17l11.101-11.1a2.6 2.6 0 00.003-3.68zm-16.415 1.281c-.002-.01-.001-.022-.004-.032l-.005.004a2.602 2.602 0 00-2.529-2.014l-24.902-.005c-.65 0-1.237.247-1.693.64l-.004-.011c-.023.02-.04.045-.062.065-.076.07-.144.146-.211.224-.047.055-.096.108-.138.167a2.39 2.39 0 00-.166.275c-.033.061-.07.118-.099.182a2.417 2.417 0 00-.116.339c-.017.057-.04.111-.053.17a2.618 2.618 0 00-.061.55v.001a2.595 2.595 0 00.683 1.757c.476.52 1.16.846 1.921.846l12.449.004 12.451.003a2.606 2.606 0 001.455-.444 2.602 2.602 0 001.084-2.721z" fill="#e43d91"/><path d="M109.537 124.784a2.594 2.594 0 01-1.84-.762l-11.101-11.1a2.6 2.6 0 01-.001-3.681l11.101-11.101a2.603 2.603 0 113.682 3.681l-9.261 9.26 9.26 9.26a2.603 2.603 0 01-1.84 4.443z" fill="#fff335"/><path d="M102.117 111.081l9.261-9.26a2.604 2.604 0 00-3.483-3.861 2.604 2.604 0 01.199 3.861l-9.261 9.26 9.26 9.26a2.603 2.603 0 01-.198 3.86 2.592 2.592 0 001.642.583 2.603 2.603 0 001.84-4.443z" fill="#f7cb15"/><path d="M146.463 124.784a2.603 2.603 0 01-1.84-4.443l9.26-9.26-9.261-9.26a2.604 2.604 0 013.682-3.681l11.101 11.101a2.602 2.602 0 01-.001 3.681l-11.101 11.1a2.594 2.594 0 01-1.84.762z" fill="#fff335"/><path d="M147.906 124.022a2.603 2.603 0 01.001-3.681l9.26-9.26-9.261-9.26a2.604 2.604 0 01.199-3.861 2.604 2.604 0 00-3.483 3.861l9.261 9.26-9.26 9.26a2.603 2.603 0 003.481 3.86 2.54 2.54 0 01-.198-.179z" fill="#f7cb15"/><path d="M113.226 112.255a2.602 2.602 0 012.322-3.779l24.902.005a2.604 2.604 0 01-.001 5.206l-24.902-.005a2.607 2.607 0 01-2.321-1.427z" fill="#fff335"/><path d="M143.054 111.084c0-.204-.024-.403-.068-.594a2.595 2.595 0 01-1.697.629l-24.902-.005a2.603 2.603 0 01-2.534-2.01 2.594 2.594 0 00-.906 1.973 2.603 2.603 0 002.603 2.603l24.902.005a2.6 2.6 0 002.602-2.601z" fill="#f7cb15"/><path d="M94.613 139.25h-6.578a2.512 2.512 0 010-5.024h6.578a2.512 2.512 0 010 5.024zm46.131 0h-6.578a2.512 2.512 0 010-5.024h6.578a2.512 2.512 0 010 5.024z" fill="#fede3a"/><path d="M124.142 139.25h-19.505a2.512 2.512 0 010-5.024h19.505a2.512 2.512 0 010 5.024zm38.971 0h-12.346a2.512 2.512 0 010-5.024h12.346a2.512 2.512 0 010 5.024z" fill="#fff"/><path d="M104.613 150.5H88.035a2.512 2.512 0 010-5.024h16.578a2.512 2.512 0 010 5.024z" fill="#fede3a"/><path d="M144.863 150.5h-30.226a2.512 2.512 0 010-5.024h30.226a2.512 2.512 0 010 5.024z" fill="#fff"/></g></switch></svg>