<svg width="125" height="125" fill="none" xmlns="http://www.w3.org/2000/svg"><path d="M85.368 4.478a1.953 1.953 0 00-1.382-.572H29.3a13.688 13.688 0 00-13.672 13.672v89.844A13.687 13.687 0 0029.3 121.094h66.406a13.687 13.687 0 0013.672-13.672V29.297a1.957 1.957 0 00-.572-1.381L85.367 4.478zm.572 6.097l16.769 16.769h-7.004a9.777 9.777 0 01-9.766-9.766v-7.003zM29.298 7.813h52.734v9.765A13.687 13.687 0 0095.705 31.25h9.766v54.688H19.533v-68.36A9.776 9.776 0 0129.3 7.813zm66.406 109.375H29.3a9.777 9.777 0 01-9.766-9.766V89.844h85.938v17.578a9.777 9.777 0 01-9.766 9.766z" fill="#FBFBFA"/><path d="M62.5 97.656h3.907a1.953 1.953 0 100-3.906H62.5a5.86 5.86 0 100 11.719 1.954 1.954 0 011.38 3.334 1.954 1.954 0 01-1.38.572h-3.907a1.954 1.954 0 000 3.906H62.5a5.858 5.858 0 100-11.719 1.95 1.95 0 01-1.954-1.953 1.953 1.953 0 011.954-1.953zm15.627 0h3.906a1.953 1.953 0 100-3.906h-3.906a5.86 5.86 0 100 11.719 1.954 1.954 0 010 3.906h-3.906a1.954 1.954 0 00-1.381 3.334c.366.366.863.572 1.38.572h3.907a5.859 5.859 0 100-11.719 1.95 1.95 0 01-1.953-1.953 1.953 1.953 0 011.953-1.953zm-29.299 0c.388.002.77.09 1.12.259a1.953 1.953 0 101.665-3.534 6.489 6.489 0 00-2.785-.631c-4.308 0-7.813 4.38-7.813 9.766 0 5.384 3.505 9.765 7.813 9.765a6.486 6.486 0 002.785-.631 1.944 1.944 0 001.006-1.106 1.95 1.95 0 00-1.178-2.498 1.937 1.937 0 00-1.493.071c-.35.168-.732.256-1.12.258-2.118 0-3.907-2.683-3.907-5.859s1.79-5.86 3.907-5.86zm13.673-46.875a1.953 1.953 0 100-3.906 1.953 1.953 0 000 3.906zm0 7.813a1.953 1.953 0 100-3.906 1.953 1.953 0 000 3.906zM37.11 54.688a1.955 1.955 0 011.953 1.953v7.812a5.866 5.866 0 005.86 5.86 1.953 1.953 0 000-3.907 1.955 1.955 0 01-1.953-1.953v-7.812a5.834 5.834 0 00-1.496-3.907 5.834 5.834 0 001.496-3.906v-7.812a1.956 1.956 0 011.953-1.953 1.953 1.953 0 000-3.907 5.866 5.866 0 00-5.86 5.86v7.812a1.956 1.956 0 01-1.953 1.953 1.953 1.953 0 000 3.907zm44.922 9.765a1.955 1.955 0 01-1.953 1.953 1.953 1.953 0 000 3.906 5.866 5.866 0 005.859-5.859v-7.812a1.955 1.955 0 011.953-1.953 1.953 1.953 0 000-3.907 1.955 1.955 0 01-1.953-1.953v-7.812a5.866 5.866 0 00-5.86-5.86 1.953 1.953 0 100 3.907 1.955 1.955 0 011.954 1.953v7.812a5.835 5.835 0 001.495 3.906 5.835 5.835 0 00-1.495 3.907v7.812z" fill="#6D55BD"/></svg>