<svg width="125" height="125" viewBox="0 0 125 125" fill="none" xmlns="http://www.w3.org/2000/svg">
<path d="M85.3675 4.47827C85.1861 4.29691 84.9708 4.15305 84.7338 4.0549C84.4968 3.95675 84.2428 3.90624 83.9863 3.90625H29.2988C25.6741 3.91039 22.199 5.35214 19.6359 7.91522C17.0728 10.4783 15.6311 13.9534 15.627 17.5781V107.422C15.6311 111.047 17.0728 114.522 19.6359 117.085C22.199 119.648 25.6741 121.09 29.2988 121.094H95.7051C99.3299 121.09 102.805 119.648 105.368 117.085C107.931 114.522 109.373 111.047 109.377 107.422V29.2969C109.377 29.0404 109.326 28.7864 109.228 28.5494C109.13 28.3125 108.986 28.0971 108.805 27.9158L85.3675 4.47827ZM85.9395 10.5745L102.709 27.3438H95.7051C93.116 27.3408 90.6337 26.311 88.803 24.4803C86.9722 22.6495 85.9424 20.1672 85.9395 17.5781V10.5745ZM29.2988 7.8125H82.0332V17.5781C82.0373 21.2029 83.479 24.678 86.0421 27.2411C88.6052 29.8042 92.0803 31.2459 95.7051 31.25H105.471V85.9375H19.5332V17.5781C19.5361 14.989 20.5659 12.5068 22.3967 10.676C24.2275 8.84522 26.7097 7.81541 29.2988 7.8125V7.8125ZM95.7051 117.188H29.2988C26.7097 117.185 24.2275 116.155 22.3967 114.324C20.5659 112.493 19.5361 110.011 19.5332 107.422V89.8438H105.471V107.422C105.468 110.011 104.438 112.493 102.607 114.324C100.776 116.155 98.2942 117.185 95.7051 117.188V117.188Z" fill="#FBFBFA"/>
<path d="M62.5005 97.6562H66.4068C66.9248 97.6562 67.4215 97.4505 67.7878 97.0842C68.1541 96.7179 68.3599 96.2211 68.3599 95.7031C68.3599 95.1851 68.1541 94.6883 67.7878 94.3221C67.4215 93.9558 66.9248 93.75 66.4068 93.75H62.5005C60.9465 93.75 59.4561 94.3673 58.3573 95.4662C57.2584 96.565 56.6411 98.0554 56.6411 99.6094C56.6411 101.163 57.2584 102.654 58.3573 103.753C59.4561 104.851 60.9465 105.469 62.5005 105.469C63.0185 105.469 63.5153 105.675 63.8816 106.041C64.2479 106.407 64.4536 106.904 64.4536 107.422C64.4536 107.94 64.2479 108.437 63.8816 108.803C63.5153 109.169 63.0185 109.375 62.5005 109.375H58.5942C58.0762 109.375 57.5795 109.581 57.2132 109.947C56.8469 110.313 56.6411 110.81 56.6411 111.328C56.6411 111.846 56.8469 112.343 57.2132 112.709C57.5795 113.075 58.0762 113.281 58.5942 113.281H62.5005C64.0545 113.281 65.5449 112.664 66.6437 111.565C67.7426 110.466 68.3599 108.976 68.3599 107.422C68.3599 105.868 67.7426 104.378 66.6437 103.279C65.5449 102.18 64.0545 101.562 62.5005 101.562C61.9825 101.562 61.4857 101.357 61.1194 100.99C60.7531 100.624 60.5474 100.127 60.5474 99.6094C60.5474 99.0914 60.7531 98.5946 61.1194 98.2283C61.4857 97.862 61.9825 97.6562 62.5005 97.6562Z" fill="#6D55BD"/>
<path d="M78.127 97.6562H82.0332C82.5512 97.6562 83.048 97.4505 83.4143 97.0842C83.7806 96.7179 83.9863 96.2211 83.9863 95.7031C83.9863 95.1851 83.7806 94.6883 83.4143 94.3221C83.048 93.9558 82.5512 93.75 82.0332 93.75H78.127C76.573 93.75 75.0826 94.3673 73.9838 95.4662C72.8849 96.565 72.2676 98.0554 72.2676 99.6094C72.2676 101.163 72.8849 102.654 73.9838 103.753C75.0826 104.851 76.573 105.469 78.127 105.469C78.645 105.469 79.1417 105.675 79.508 106.041C79.8743 106.407 80.0801 106.904 80.0801 107.422C80.0801 107.94 79.8743 108.437 79.508 108.803C79.1417 109.169 78.645 109.375 78.127 109.375H74.2207C73.7027 109.375 73.2059 109.581 72.8396 109.947C72.4734 110.313 72.2676 110.81 72.2676 111.328C72.2676 111.846 72.4734 112.343 72.8396 112.709C73.2059 113.075 73.7027 113.281 74.2207 113.281H78.127C79.681 113.281 81.1713 112.664 82.2702 111.565C83.369 110.466 83.9863 108.976 83.9863 107.422C83.9863 105.868 83.369 104.378 82.2702 103.279C81.1713 102.18 79.681 101.562 78.127 101.562C77.609 101.562 77.1122 101.357 76.7459 100.99C76.3796 100.624 76.1738 100.127 76.1738 99.6094C76.1738 99.0914 76.3796 98.5946 76.7459 98.2283C77.1122 97.862 77.609 97.6562 78.127 97.6562Z" fill="#6D55BD"/>
<path d="M48.8276 97.6562C49.2157 97.6581 49.5985 97.7463 49.9482 97.9146C50.4168 98.1354 50.9539 98.161 51.4414 97.9857C51.9289 97.8105 52.3268 97.4488 52.5476 96.9802C52.7684 96.5116 52.794 95.9745 52.6188 95.487C52.4435 94.9996 52.0819 94.6017 51.6133 94.3809C50.7431 93.9663 49.7915 93.7508 48.8276 93.75C44.5198 93.75 41.0151 98.1309 41.0151 103.516C41.0151 108.9 44.5198 113.281 48.8276 113.281C49.7915 113.28 50.7431 113.065 51.6133 112.65C51.8453 112.541 52.0535 112.387 52.226 112.197C52.3986 112.008 52.532 111.786 52.6188 111.544C52.7055 111.303 52.7439 111.047 52.7317 110.791C52.7195 110.534 52.6569 110.283 52.5476 110.051C52.4383 109.819 52.2843 109.611 52.0945 109.438C51.9047 109.266 51.6828 109.132 51.4414 109.046C51.2 108.959 50.9439 108.92 50.6877 108.933C50.4315 108.945 50.1803 109.007 49.9482 109.117C49.5985 109.285 49.2157 109.373 48.8276 109.375C46.7102 109.375 44.9214 106.692 44.9214 103.516C44.9214 100.34 46.7102 97.6562 48.8276 97.6562Z" fill="#6D55BD"/>
<path d="M62.501 50.7812C63.5797 50.7812 64.4541 49.9068 64.4541 48.8281C64.4541 47.7494 63.5797 46.875 62.501 46.875C61.4223 46.875 60.5479 47.7494 60.5479 48.8281C60.5479 49.9068 61.4223 50.7812 62.501 50.7812Z" fill="#6D55BD"/>
<path d="M62.501 58.5937C63.5797 58.5937 64.4541 57.7193 64.4541 56.6406C64.4541 55.5619 63.5797 54.6875 62.501 54.6875C61.4223 54.6875 60.5479 55.5619 60.5479 56.6406C60.5479 57.7193 61.4223 58.5937 62.501 58.5937Z" fill="#6D55BD"/>
<path d="M37.1104 54.6875C37.6282 54.6881 38.1246 54.894 38.4908 55.2602C38.8569 55.6264 39.0629 56.1228 39.0635 56.6406V64.4531C39.0652 66.0066 39.6831 67.4959 40.7816 68.5944C41.88 69.6929 43.3694 70.3108 44.9229 70.3125C45.4409 70.3125 45.9376 70.1067 46.3039 69.7404C46.6702 69.3742 46.876 68.8774 46.876 68.3594C46.876 67.8414 46.6702 67.3446 46.3039 66.9783C45.9376 66.612 45.4409 66.4062 44.9229 66.4062C44.405 66.4057 43.9086 66.1997 43.5424 65.8336C43.1763 65.4674 42.9703 64.9709 42.9697 64.4531V56.6406C42.9711 55.1985 42.4383 53.8069 41.4741 52.7344C42.4383 51.6619 42.9711 50.2703 42.9697 48.8281V41.0156C42.9703 40.4978 43.1763 40.0014 43.5424 39.6352C43.9086 39.269 44.405 39.0631 44.9229 39.0625C45.4409 39.0625 45.9376 38.8567 46.3039 38.4904C46.6702 38.1242 46.876 37.6274 46.876 37.1094C46.876 36.5914 46.6702 36.0946 46.3039 35.7283C45.9376 35.362 45.4409 35.1562 44.9229 35.1562C43.3694 35.158 41.88 35.7759 40.7816 36.8743C39.6831 37.9728 39.0652 39.4622 39.0635 41.0156V48.8281C39.0629 49.3459 38.8569 49.8424 38.4908 50.2085C38.1246 50.5747 37.6282 50.7807 37.1104 50.7812C36.5924 50.7812 36.0956 50.987 35.7293 51.3533C35.363 51.7196 35.1572 52.2164 35.1572 52.7344C35.1572 53.2524 35.363 53.7492 35.7293 54.1154C36.0956 54.4817 36.5924 54.6875 37.1104 54.6875Z" fill="#6D55BD"/>
<path d="M82.0317 64.4531C82.0312 64.9709 81.8252 65.4674 81.459 65.8336C81.0929 66.1997 80.5964 66.4057 80.0786 66.4062C79.5606 66.4062 79.0638 66.612 78.6975 66.9783C78.3313 67.3446 78.1255 67.8414 78.1255 68.3594C78.1255 68.8774 78.3313 69.3742 78.6975 69.7404C79.0638 70.1067 79.5606 70.3125 80.0786 70.3125C81.6321 70.3108 83.1214 69.6929 84.2199 68.5944C85.3184 67.4959 85.9362 66.0066 85.938 64.4531V56.6406C85.9386 56.1228 86.1445 55.6264 86.5107 55.2602C86.8768 54.894 87.3733 54.6881 87.8911 54.6875C88.4091 54.6875 88.9059 54.4817 89.2722 54.1154C89.6385 53.7492 89.8442 53.2524 89.8442 52.7344C89.8442 52.2164 89.6385 51.7196 89.2722 51.3533C88.9059 50.987 88.4091 50.7812 87.8911 50.7812C87.3733 50.7807 86.8768 50.5747 86.5107 50.2085C86.1445 49.8424 85.9386 49.3459 85.938 48.8281V41.0156C85.9362 39.4622 85.3184 37.9728 84.2199 36.8743C83.1214 35.7759 81.6321 35.158 80.0786 35.1563C79.5606 35.1563 79.0638 35.362 78.6975 35.7283C78.3313 36.0946 78.1255 36.5914 78.1255 37.1094C78.1255 37.6274 78.3313 38.1242 78.6975 38.4904C79.0638 38.8567 79.5606 39.0625 80.0786 39.0625C80.5964 39.0631 81.0929 39.269 81.459 39.6352C81.8252 40.0014 82.0312 40.4978 82.0317 41.0156V48.8281C82.0304 50.2703 82.5632 51.6619 83.5273 52.7344C82.5632 53.8069 82.0304 55.1985 82.0317 56.6406V64.4531Z" fill="#6D55BD"/>
</svg>
