<svg width="50" height="38" viewBox="0 0 50 38" fill="none" xmlns="http://www.w3.org/2000/svg">
<path d="M43.9201 0.121582H6.07988C2.72744 0.121582 0 2.84902 0 6.20137V31.7987C0 35.1512 2.72744 37.8785 6.07988 37.8785H43.9201C47.2727 37.8785 50 35.1512 50 31.7987V6.20137C50 2.84902 47.2727 0.121582 43.9201 0.121582ZM41.007 2.1623L24.9862 15.1123L8.96543 2.1623H41.007ZM41.8092 35.8377H8.16328V12.0061L24.3461 25.0422C24.7197 25.3432 25.2527 25.3432 25.6264 25.0422L41.8091 12.0061V35.8377H41.8092ZM47.9592 31.7986C47.9592 34.0258 46.1473 35.8376 43.9201 35.8376H43.8501V9.87373C43.8501 9.48086 43.6246 9.12295 43.2701 8.95332C42.9154 8.78359 42.4953 8.83272 42.1896 9.0791L24.9862 22.9373L7.78291 9.0791C7.47686 8.83272 7.05654 8.78359 6.70234 8.95332C6.34785 9.12295 6.12236 9.48086 6.12236 9.87373V35.8376H6.07979C3.85273 35.8377 2.04082 34.0258 2.04082 31.7987V6.20137C2.04082 4.08945 3.67051 2.35195 5.73818 2.17793L24.3448 17.2182C24.5318 17.3694 24.7591 17.445 24.9862 17.445C25.2135 17.445 25.4406 17.3694 25.6276 17.2182L44.2366 2.17588C46.3162 2.33799 47.9592 4.08086 47.9592 6.20127V31.7986Z" fill="#6D55BD"/>
</svg>
