<svg width="126" height="125" viewBox="0 0 126 125" fill="none" xmlns="http://www.w3.org/2000/svg">
<path d="M85.867 4.47827C85.6856 4.29691 85.4703 4.15305 85.2333 4.0549C84.9963 3.95675 84.7424 3.90624 84.4859 3.90625H29.7983C26.1736 3.91039 22.6985 5.35214 20.1354 7.91522C17.5724 10.4783 16.1306 13.9534 16.1265 17.5781V107.422C16.1306 111.047 17.5724 114.522 20.1354 117.085C22.6985 119.648 26.1736 121.09 29.7983 121.094H96.2046C99.8294 121.09 103.304 119.648 105.868 117.085C108.431 114.522 109.872 111.047 109.877 107.422V29.2969C109.877 29.0404 109.826 28.7864 109.728 28.5494C109.63 28.3125 109.486 28.0971 109.304 27.9158L85.867 4.47827ZM86.439 10.5745L103.208 27.3438H96.2046C93.6155 27.3408 91.1333 26.311 89.3025 24.4803C87.4717 22.6495 86.4419 20.1672 86.439 17.5781V10.5745ZM29.7983 7.8125H82.5327V17.5781C82.5369 21.2029 83.9786 24.678 86.5417 27.241C89.1048 29.8041 92.5799 31.2459 96.2046 31.25H105.97V85.9375H20.0327V17.5781C20.0356 14.989 21.0654 12.5068 22.8962 10.676C24.727 8.84522 27.2092 7.81541 29.7983 7.8125V7.8125ZM96.2046 117.188H29.7983C27.2092 117.185 24.727 116.155 22.8962 114.324C21.0654 112.493 20.0356 110.011 20.0327 107.422V89.8438H105.97V107.422C105.967 110.011 104.938 112.493 103.107 114.324C101.276 116.155 98.7937 117.185 96.2046 117.188V117.188Z" fill="#FBFBFA"/>
<path d="M41.5156 93.75C40.9976 93.75 40.5008 93.9558 40.1346 94.3221C39.7683 94.6883 39.5625 95.1851 39.5625 95.7031V101.562H35.6562V95.7031C35.6562 95.1851 35.4505 94.6883 35.0842 94.3221C34.7179 93.9558 34.2211 93.75 33.7031 93.75C33.1851 93.75 32.6883 93.9558 32.3221 94.3221C31.9558 94.6883 31.75 95.1851 31.75 95.7031V111.328C31.75 111.846 31.9558 112.343 32.3221 112.709C32.6883 113.075 33.1851 113.281 33.7031 113.281C34.2211 113.281 34.7179 113.075 35.0842 112.709C35.4505 112.343 35.6562 111.846 35.6562 111.328V105.469H39.5625V111.328C39.5625 111.846 39.7683 112.343 40.1346 112.709C40.5008 113.075 40.9976 113.281 41.5156 113.281C42.0336 113.281 42.5304 113.075 42.8967 112.709C43.263 112.343 43.4688 111.846 43.4688 111.328V95.7031C43.4688 95.1851 43.263 94.6883 42.8967 94.3221C42.5304 93.9558 42.0336 93.75 41.5156 93.75Z" fill="#6D55BD"/>
<path d="M57.1401 93.75H49.3276C48.8096 93.75 48.3128 93.9558 47.9466 94.3221C47.5803 94.6883 47.3745 95.1851 47.3745 95.7031C47.3745 96.2211 47.5803 96.7179 47.9466 97.0842C48.3128 97.4505 48.8096 97.6562 49.3276 97.6562H51.2808V111.328C51.2808 111.846 51.4865 112.343 51.8528 112.709C52.2191 113.075 52.7159 113.281 53.2339 113.281C53.7519 113.281 54.2487 113.075 54.615 112.709C54.9812 112.343 55.187 111.846 55.187 111.328V97.6562H57.1401C57.6581 97.6562 58.1549 97.4505 58.5212 97.0842C58.8875 96.7179 59.0933 96.2211 59.0933 95.7031C59.0933 95.1851 58.8875 94.6883 58.5212 94.3221C58.1549 93.9558 57.6581 93.75 57.1401 93.75Z" fill="#6D55BD"/>
<path d="M77.1211 93.8022C76.6929 93.7012 76.2431 93.7476 75.8447 93.9341C75.4462 94.1205 75.1223 94.4361 74.9255 94.8296L70.813 103.054L66.7004 94.8296C66.5036 94.4361 66.1798 94.1206 65.7813 93.9342C65.3828 93.7477 64.933 93.7013 64.5048 93.8024C64.0767 93.9035 63.6951 94.1462 63.4221 94.4911C63.1491 94.8361 63.0005 95.2632 63.0005 95.7031V111.328C63.0005 111.846 63.2063 112.343 63.5725 112.709C63.9388 113.075 64.4356 113.281 64.9536 113.281C65.4716 113.281 65.9684 113.075 66.3347 112.709C66.701 112.343 66.9067 111.846 66.9067 111.328V103.977L69.0662 108.295C69.2284 108.62 69.4777 108.893 69.7863 109.083C70.0948 109.274 70.4503 109.375 70.813 109.375C71.1757 109.375 71.5312 109.274 71.8397 109.083C72.1482 108.893 72.3976 108.62 72.5598 108.295L74.7192 103.977V111.328C74.7192 111.846 74.925 112.343 75.2913 112.709C75.6576 113.075 76.1544 113.281 76.6724 113.281C77.1904 113.281 77.6871 113.075 78.0534 112.709C78.4197 112.343 78.6255 111.846 78.6255 111.328V95.7031C78.6255 95.2631 78.4769 94.836 78.2039 94.491C77.9308 94.146 77.5493 93.9033 77.1211 93.8022V93.8022Z" fill="#6D55BD"/>
<path d="M92.2969 109.375H86.4375V95.7031C86.4375 95.1851 86.2317 94.6883 85.8654 94.3221C85.4992 93.9558 85.0024 93.75 84.4844 93.75C83.9664 93.75 83.4696 93.9558 83.1033 94.3221C82.737 94.6883 82.5312 95.1851 82.5312 95.7031V111.328C82.5312 111.846 82.737 112.343 83.1033 112.709C83.4696 113.075 83.9664 113.281 84.4844 113.281H92.2969C92.8149 113.281 93.3117 113.075 93.6779 112.709C94.0442 112.343 94.25 111.846 94.25 111.328C94.25 110.81 94.0442 110.313 93.6779 109.947C93.3117 109.581 92.8149 109.375 92.2969 109.375Z" fill="#6D55BD"/>
<path d="M47.9476 63.8812C48.3139 64.2475 48.8107 64.4532 49.3287 64.4532C49.8467 64.4532 50.3435 64.2475 50.7098 63.8812C51.0761 63.5149 51.2819 63.0181 51.2819 62.5001C51.2819 61.982 51.0761 61.4852 50.7098 61.119L40.3719 50.7813L50.7098 40.4437C51.0761 40.0774 51.2819 39.5806 51.2819 39.0626C51.2819 38.5445 51.0761 38.0477 50.7098 37.6814C50.3435 37.3152 49.8467 37.1094 49.3287 37.1094C48.8107 37.1094 48.3139 37.3152 47.9476 37.6814L36.2288 49.4002C36.0475 49.5816 35.9036 49.7969 35.8054 50.0339C35.7073 50.2708 35.6567 50.5248 35.6567 50.7813C35.6567 51.0378 35.7073 51.2918 35.8054 51.5288C35.9036 51.7657 36.0475 51.981 36.2288 52.1624L47.9476 63.8812Z" fill="#6D55BD"/>
<path d="M75.2923 63.8812C75.4737 64.0625 75.689 64.2064 75.926 64.3046C76.1629 64.4027 76.4169 64.4533 76.6734 64.4533C76.9299 64.4533 77.1839 64.4027 77.4209 64.3046C77.6578 64.2064 77.8732 64.0625 78.0545 63.8812L89.7733 52.1624C89.9546 51.981 90.0985 51.7657 90.1967 51.5288C90.2948 51.2918 90.3454 51.0378 90.3454 50.7813C90.3454 50.5248 90.2948 50.2708 90.1967 50.0339C90.0985 49.7969 89.9546 49.5816 89.7733 49.4002L78.0545 37.6814C77.6882 37.3152 77.1914 37.1094 76.6734 37.1094C76.1554 37.1094 75.6586 37.3152 75.2923 37.6814C74.926 38.0477 74.7202 38.5445 74.7202 39.0626C74.7202 39.5806 74.926 40.0774 75.2923 40.4437L85.6302 50.7813L75.2923 61.119C75.1109 61.3003 74.9671 61.5156 74.8689 61.7526C74.7707 61.9896 74.7202 62.2436 74.7202 62.5001C74.7202 62.7566 74.7707 63.0105 74.8689 63.2475C74.9671 63.4845 75.1109 63.6998 75.2923 63.8812V63.8812Z" fill="#6D55BD"/>
<path d="M56.5228 70.212C56.7661 70.2934 57.0231 70.3261 57.279 70.308C57.5349 70.29 57.7848 70.2216 58.0143 70.1069C58.2437 69.9922 58.4483 69.8333 58.6163 69.6394C58.7843 69.4455 58.9124 69.2204 58.9933 68.9769L70.7121 33.8207C70.7961 33.5767 70.8309 33.3184 70.8145 33.0608C70.7981 32.8032 70.7309 32.5514 70.6166 32.32C70.5023 32.0886 70.3433 31.8821 70.1487 31.7125C69.9541 31.5429 69.7279 31.4136 69.483 31.3319C69.2382 31.2503 68.9796 31.218 68.7222 31.2369C68.4648 31.2559 68.2137 31.3256 67.9834 31.4422C67.7531 31.5587 67.5482 31.7198 67.3805 31.916C67.2128 32.1122 67.0857 32.3397 67.0065 32.5853L55.2877 67.7416C55.1239 68.233 55.162 68.7693 55.3937 69.2326C55.6253 69.6959 56.0315 70.0482 56.5228 70.212V70.212Z" fill="#6D55BD"/>
</svg>
