<svg width="125" height="125" viewBox="0 0 125 125" fill="none" xmlns="http://www.w3.org/2000/svg">
<path d="M85.3675 4.47827C85.1861 4.29691 84.9708 4.15305 84.7338 4.0549C84.4968 3.95675 84.2428 3.90624 83.9863 3.90625H29.2988C25.6741 3.91032 22.1989 5.35205 19.6359 7.91515C17.0728 10.4782 15.631 13.9534 15.627 17.5781V107.422C15.631 111.047 17.0728 114.522 19.6359 117.085C22.1989 119.648 25.6741 121.09 29.2988 121.094H95.7051C99.3299 121.09 102.805 119.648 105.368 117.085C107.931 114.522 109.373 111.047 109.377 107.422V29.2969C109.377 29.0404 109.326 28.7864 109.228 28.5494C109.13 28.3125 108.986 28.0971 108.805 27.9158L85.3675 4.47827ZM85.9395 10.5745L102.709 27.3438H95.7051C93.116 27.3408 90.6337 26.311 88.803 24.4803C86.9722 22.6495 85.9424 20.1672 85.9395 17.5781V10.5745ZM29.2988 7.8125H82.0332V17.5781C82.0373 21.2029 83.479 24.678 86.0421 27.2411C88.6052 29.8042 92.0803 31.2459 95.7051 31.25H105.471V85.9375H19.5332V17.5781C19.5361 14.989 20.5659 12.5068 22.3967 10.676C24.2275 8.84522 26.7097 7.81541 29.2988 7.8125V7.8125ZM95.7051 117.188H29.2988C26.7097 117.185 24.2275 116.155 22.3967 114.324C20.5659 112.493 19.5361 110.011 19.5332 107.422V89.8438H105.471V107.422C105.468 110.011 104.438 112.493 102.607 114.324C100.776 116.155 98.2942 117.185 95.7051 117.188V117.188Z" fill="#FBFBFA"/>
<path d="M58.5938 93.75C58.0757 93.75 57.579 93.9558 57.2127 94.3221C56.8464 94.6883 56.6406 95.1851 56.6406 95.7031V107.422C56.6406 107.94 56.4349 108.437 56.0686 108.803C55.7023 109.169 55.2055 109.375 54.6875 109.375C54.1695 109.375 53.6727 109.169 53.3064 108.803C52.9401 108.437 52.7344 107.94 52.7344 107.422C52.7344 106.904 52.5286 106.407 52.1623 106.041C51.796 105.675 51.2993 105.469 50.7812 105.469C50.2632 105.469 49.7665 105.675 49.4002 106.041C49.0339 106.407 48.8281 106.904 48.8281 107.422C48.8281 108.976 49.4454 110.466 50.5443 111.565C51.6431 112.664 53.1335 113.281 54.6875 113.281C56.2415 113.281 57.7319 112.664 58.8307 111.565C59.9296 110.466 60.5469 108.976 60.5469 107.422V95.7031C60.5469 95.1851 60.3411 94.6883 59.9748 94.3221C59.6085 93.9558 59.1118 93.75 58.5938 93.75Z" fill="#6D55BD"/>
<path d="M70.3135 97.6562H74.2197C74.7377 97.6562 75.2345 97.4505 75.6008 97.0842C75.9671 96.7179 76.1729 96.2211 76.1729 95.7031C76.1729 95.1851 75.9671 94.6883 75.6008 94.3221C75.2345 93.9558 74.7377 93.75 74.2197 93.75H70.3135C68.7595 93.75 67.2691 94.3673 66.1703 95.4662C65.0714 96.565 64.4541 98.0554 64.4541 99.6094C64.4541 101.163 65.0714 102.654 66.1703 103.753C67.2691 104.851 68.7595 105.469 70.3135 105.469C70.8315 105.469 71.3283 105.675 71.6946 106.041C72.0608 106.407 72.2666 106.904 72.2666 107.422C72.2666 107.94 72.0608 108.437 71.6946 108.803C71.3283 109.169 70.8315 109.375 70.3135 109.375H66.4072C65.8892 109.375 65.3924 109.581 65.0262 109.947C64.6599 110.313 64.4541 110.81 64.4541 111.328C64.4541 111.846 64.6599 112.343 65.0262 112.709C65.3924 113.075 65.8892 113.281 66.4072 113.281H70.3135C71.8675 113.281 73.3578 112.664 74.4567 111.565C75.5555 110.466 76.1729 108.976 76.1729 107.422C76.1729 105.868 75.5555 104.378 74.4567 103.279C73.3578 102.18 71.8675 101.562 70.3135 101.562C69.7955 101.562 69.2987 101.357 68.9324 100.99C68.5661 100.624 68.3604 100.127 68.3604 99.6094C68.3604 99.0914 68.5661 98.5946 68.9324 98.2283C69.2987 97.862 69.7955 97.6562 70.3135 97.6562Z" fill="#6D55BD"/>
<path d="M70.314 54.6875C71.3926 54.6875 72.2671 53.8131 72.2671 52.7344C72.2671 51.6557 71.3926 50.7812 70.314 50.7812C69.2353 50.7812 68.3608 51.6557 68.3608 52.7344C68.3608 53.8131 69.2353 54.6875 70.314 54.6875Z" fill="#6D55BD"/>
<path d="M54.688 54.6875C55.7667 54.6875 56.6411 53.8131 56.6411 52.7344C56.6411 51.6557 55.7667 50.7812 54.688 50.7812C53.6093 50.7812 52.7349 51.6557 52.7349 52.7344C52.7349 53.8131 53.6093 54.6875 54.688 54.6875Z" fill="#6D55BD"/>
<path d="M62.501 54.6875C63.5797 54.6875 64.4541 53.8131 64.4541 52.7344C64.4541 51.6557 63.5797 50.7812 62.501 50.7812C61.4223 50.7812 60.5479 51.6557 60.5479 52.7344C60.5479 53.8131 61.4223 54.6875 62.501 54.6875Z" fill="#6D55BD"/>
<path d="M37.1104 54.6875C37.6282 54.6881 38.1246 54.894 38.4908 55.2602C38.8569 55.6264 39.0629 56.1228 39.0635 56.6406V64.4531C39.0653 66.0066 39.6832 67.4959 40.7816 68.5943C41.8801 69.6928 43.3694 70.3107 44.9229 70.3125C45.4409 70.3125 45.9376 70.1067 46.3039 69.7404C46.6702 69.3742 46.876 68.8774 46.876 68.3594C46.876 67.8414 46.6702 67.3446 46.3039 66.9783C45.9376 66.612 45.4409 66.4062 44.9229 66.4062C44.405 66.4057 43.9086 66.1997 43.5424 65.8336C43.1763 65.4674 42.9703 64.9709 42.9697 64.4531V56.6406C42.9711 55.1985 42.4383 53.8069 41.4741 52.7344C42.4383 51.6619 42.9711 50.2703 42.9697 48.8281V41.0156C42.9703 40.4978 43.1763 40.0014 43.5424 39.6352C43.9086 39.269 44.405 39.0631 44.9229 39.0625C45.4409 39.0625 45.9376 38.8567 46.3039 38.4904C46.6702 38.1242 46.876 37.6274 46.876 37.1094C46.876 36.5914 46.6702 36.0946 46.3039 35.7283C45.9376 35.362 45.4409 35.1562 44.9229 35.1562C43.3694 35.1581 41.8801 35.776 40.7816 36.8744C39.6832 37.9729 39.0653 39.4622 39.0635 41.0156V48.8281C39.0629 49.3459 38.8569 49.8424 38.4908 50.2085C38.1246 50.5747 37.6282 50.7807 37.1104 50.7812C36.5924 50.7812 36.0956 50.987 35.7293 51.3533C35.363 51.7196 35.1572 52.2164 35.1572 52.7344C35.1572 53.2524 35.363 53.7492 35.7293 54.1154C36.0956 54.4817 36.5924 54.6875 37.1104 54.6875Z" fill="#6D55BD"/>
<path d="M82.0317 64.4531C82.0312 64.9709 81.8252 65.4674 81.459 65.8336C81.0929 66.1997 80.5964 66.4057 80.0786 66.4062C79.5606 66.4062 79.0638 66.612 78.6975 66.9783C78.3313 67.3446 78.1255 67.8414 78.1255 68.3594C78.1255 68.8774 78.3313 69.3742 78.6975 69.7404C79.0638 70.1067 79.5606 70.3125 80.0786 70.3125C81.6321 70.3107 83.1214 69.6928 84.2198 68.5943C85.3183 67.4959 85.9362 66.0066 85.938 64.4531V56.6406C85.9386 56.1228 86.1445 55.6264 86.5107 55.2602C86.8768 54.894 87.3733 54.6881 87.8911 54.6875C88.4091 54.6875 88.9059 54.4817 89.2722 54.1154C89.6385 53.7492 89.8442 53.2524 89.8442 52.7344C89.8442 52.2164 89.6385 51.7196 89.2722 51.3533C88.9059 50.987 88.4091 50.7812 87.8911 50.7812C87.3733 50.7807 86.8768 50.5747 86.5107 50.2085C86.1445 49.8424 85.9386 49.3459 85.938 48.8281V41.0156C85.9362 39.4622 85.3183 37.9729 84.2198 36.8744C83.1214 35.776 81.6321 35.1581 80.0786 35.1562C79.5606 35.1563 79.0638 35.362 78.6975 35.7283C78.3313 36.0946 78.1255 36.5914 78.1255 37.1094C78.1255 37.6274 78.3313 38.1242 78.6975 38.4904C79.0638 38.8567 79.5606 39.0625 80.0786 39.0625C80.5964 39.0631 81.0929 39.269 81.459 39.6352C81.8252 40.0014 82.0312 40.4978 82.0317 41.0156V48.8281C82.0304 50.2703 82.5632 51.6619 83.5273 52.7344C82.5632 53.8069 82.0304 55.1985 82.0317 56.6406V64.4531Z" fill="#6D55BD"/>
</svg>
