<svg width="38" height="34" viewBox="0 0 38 34" fill="none" xmlns="http://www.w3.org/2000/svg">
<g filter="url(#filter0_d)">
<path d="M33.5368 0.694885C33.1703 0.246735 32.6215 0 31.9911 0C31.6485 0 31.2855 0.0720978 30.9124 0.214691L5.51799 9.90852C4.17034 10.4228 3.98883 11.1946 4.0005 11.6089C4.01218 12.0232 4.23717 12.7835 5.61183 13.2209C5.62007 13.2234 5.62831 13.2259 5.63655 13.2282L10.904 14.7356L13.7527 22.8815C14.1411 23.9921 15.0129 24.6819 16.0282 24.6819C16.6684 24.6819 17.2981 24.4137 17.8492 23.9065L21.1074 20.9065L25.8331 24.7117L25.8347 24.7128L25.8795 24.749C25.8837 24.7522 25.888 24.7556 25.8921 24.7588C26.4174 25.1662 26.9908 25.3814 27.5508 25.3816C28.6451 25.3816 29.5167 24.5716 29.7705 23.3183L33.9314 2.7729C34.0985 1.94824 33.9584 1.21033 33.5368 0.694885ZM12.6662 14.4493L22.8288 9.25758L16.5009 15.9814C16.3972 16.0915 16.3237 16.2263 16.2876 16.3731L15.0674 21.3155L12.6662 14.4493ZM16.6584 22.6133C16.6162 22.652 16.5739 22.6865 16.5316 22.7184L17.6636 18.1334L19.7229 19.7916L16.6584 22.6133ZM32.2086 2.42386L28.0477 22.9694C28.0077 23.166 27.8797 23.6236 27.5508 23.6236C27.3883 23.6236 27.1842 23.535 26.9752 23.3741L21.6203 19.0624L21.6178 19.0606L18.4315 16.4948L27.5824 6.77124C27.8754 6.45996 27.9019 5.9832 27.6454 5.64125C27.3886 5.2993 26.9232 5.19173 26.5426 5.38628L11.4918 13.0753L6.15268 11.5478L31.5393 1.85692C31.7538 1.77498 31.9035 1.75781 31.9911 1.75781C32.0449 1.75781 32.1406 1.76422 32.1761 1.80794C32.2228 1.86493 32.2823 2.05925 32.2086 2.42386Z" fill="black"/>
</g>
<defs>
<filter id="filter0_d" x="0" y="0" width="38.0001" height="33.3816" filterUnits="userSpaceOnUse" color-interpolation-filters="sRGB">
<feFlood flood-opacity="0" result="BackgroundImageFix"/>
<feColorMatrix in="SourceAlpha" type="matrix" values="0 0 0 0 0 0 0 0 0 0 0 0 0 0 0 0 0 0 127 0"/>
<feOffset dy="4"/>
<feGaussianBlur stdDeviation="2"/>
<feColorMatrix type="matrix" values="0 0 0 0 0 0 0 0 0 0 0 0 0 0 0 0 0 0 0.25 0"/>
<feBlend mode="normal" in2="BackgroundImageFix" result="effect1_dropShadow"/>
<feBlend mode="normal" in="SourceGraphic" in2="effect1_dropShadow" result="shape"/>
</filter>
</defs>
</svg>
