<svg width="50" height="36" viewBox="0 0 50 36" fill="none" xmlns="http://www.w3.org/2000/svg">
<path d="M49.2279 1.45821C48.6171 0.840235 47.7024 0.5 46.6518 0.5C46.0807 0.5 45.4757 0.599419 44.8539 0.796048L2.52998 14.1634C0.283891 14.8726 -0.0186135 15.9368 0.000841412 16.5081C0.0202963 17.0793 0.39528 18.1278 2.68638 18.731C2.70011 18.7344 2.71385 18.7379 2.72758 18.7411L11.5067 20.8197L16.2545 32.0525C16.9018 33.5839 18.3548 34.5352 20.047 34.5352C21.114 34.5352 22.1634 34.1653 23.082 33.4659L28.5122 29.3291L36.3884 34.5762L36.3911 34.5778L36.4658 34.6276C36.4727 34.6321 36.4799 34.6368 36.4868 34.6412C37.3623 35.203 38.3179 35.4997 39.2513 35.5C41.0751 35.5 42.5277 34.383 42.9508 32.6547L49.8855 4.3237C50.164 3.18653 49.9305 2.16898 49.2279 1.45821ZM14.4436 20.4249L31.3812 13.2657L20.8348 22.5376C20.662 22.6894 20.5395 22.8753 20.4792 23.0776L18.4456 29.8931L14.4436 20.4249ZM21.0972 31.6826C21.027 31.736 20.9564 31.7836 20.8859 31.8275L22.7726 25.5051L26.2047 27.7917L21.0972 31.6826ZM47.0142 3.84238L40.0795 32.1737C40.0127 32.4448 39.7995 33.0757 39.2513 33.0757C38.9805 33.0757 38.6402 32.9536 38.2919 32.7317L29.3671 26.7861L29.3629 26.7836L24.0525 23.2456L39.304 9.8372C39.7922 9.40797 39.8365 8.75054 39.4089 8.27901C38.9808 7.80747 38.2053 7.65913 37.5709 7.92741L12.4863 18.5302L3.58779 16.4238L45.8988 3.0606C46.2562 2.94761 46.5057 2.92394 46.6518 2.92394C46.7415 2.92394 46.9009 2.93277 46.96 2.99306C47.0379 3.07165 47.137 3.3396 47.0142 3.84238Z" fill="#6D55BD"/>
</svg>
