<svg width="125" height="125" viewBox="0 0 125 125" fill="none" xmlns="http://www.w3.org/2000/svg">
<path d="M12.9185 20.3857C9.89331 20.3857 7.43213 22.8499 7.43213 25.8789C7.43213 28.908 9.89331 31.3721 12.9185 31.3721C15.9436 31.3721 18.4045 28.908 18.4045 25.8789C18.4045 22.8499 15.9436 20.3857 12.9185 20.3857ZM12.9185 27.71C11.9126 27.71 11.0942 26.8887 11.0942 25.8789C11.0942 24.8691 11.9126 24.0479 12.9185 24.0479C13.9241 24.0479 14.7424 24.8691 14.7424 25.8789C14.7424 26.8887 13.9241 27.71 12.9185 27.71Z" fill="#FBFBFA"/>
<path d="M28.7568 20.3857C25.7317 20.3857 23.2705 22.8499 23.2705 25.8789C23.2705 28.908 25.7317 31.3721 28.7568 31.3721C31.782 31.3721 34.2429 28.908 34.2429 25.8789C34.2429 22.8499 31.782 20.3857 28.7568 20.3857V20.3857ZM28.7568 27.71C27.751 27.71 26.9326 26.8887 26.9326 25.8789C26.9326 24.8691 27.751 24.0479 28.7568 24.0479C29.7625 24.0479 30.5808 24.8691 30.5808 25.8789C30.5808 26.8887 29.7625 27.71 28.7568 27.71Z" fill="#FBFBFA"/>
<path d="M44.1387 20.3857C41.1135 20.3857 38.6523 22.8499 38.6523 25.8789C38.6523 28.908 41.1135 31.3721 44.1387 31.3721C47.1638 31.3721 49.6248 28.908 49.6248 25.8789C49.6248 22.8499 47.1638 20.3857 44.1387 20.3857ZM44.1387 27.71C43.1328 27.71 42.3145 26.8887 42.3145 25.8789C42.3145 24.8691 43.1328 24.0479 44.1387 24.0479C45.1443 24.0479 45.9626 24.8691 45.9626 25.8789C45.9626 26.8887 45.1443 27.71 44.1387 27.71Z" fill="#FBFBFA"/>
<path d="M117.152 25.8789C117.152 22.8499 114.691 20.3857 111.666 20.3857H60.4951C57.47 20.3857 55.0088 22.8499 55.0088 25.8789C55.0088 28.908 57.47 31.3721 60.4951 31.3721H111.666C114.691 31.3721 117.152 28.908 117.152 25.8789ZM111.666 27.71H60.4951C59.4893 27.71 58.6709 26.8887 58.6709 25.8789C58.6709 24.8691 59.4893 24.0479 60.4951 24.0479H111.666C112.672 24.0479 113.49 24.8691 113.49 25.8789C113.49 26.8887 112.672 27.71 111.666 27.71Z" fill="#FBFBFA"/>
<path d="M98.5834 83.6023C98.0018 82.7756 96.86 82.5764 96.0323 83.1582C95.2052 83.74 95.0065 84.8823 95.5885 85.7095L100.171 92.2241C100.755 93.0161 100.542 94.2251 99.7269 94.7737C98.931 95.3572 97.726 95.1443 97.1744 94.3298L86.1627 78.6775C85.5919 77.8665 84.6593 77.3821 83.6676 77.3818C83.6671 77.3818 83.6671 77.3818 83.6666 77.3818C82.6754 77.3818 81.7428 77.8657 81.1717 78.676L70.1464 94.3281C69.5907 95.1436 68.3883 95.3581 67.5907 94.7727C66.7655 94.1914 66.5675 93.0469 67.149 92.2214L80.1918 73.7051C80.9318 72.6545 80.932 71.2427 80.193 70.1919L69.1593 54.5059C68.5785 53.6799 68.7777 52.5352 69.6022 51.9551C70.4296 51.3745 71.5743 51.5735 72.1551 52.3984L81.1766 65.2234C81.7472 66.0344 82.6801 66.519 83.6718 66.5193H83.6727C84.6644 66.5193 85.597 66.0354 86.1678 65.2249L95.2032 52.3972C95.7543 51.5813 96.9618 51.3721 97.7555 51.9563C98.5721 52.5061 98.7816 53.7141 98.1981 54.5068L87.1473 70.196C86.4073 71.2466 86.4071 72.6584 87.1464 73.7092L90.6696 78.7175C91.2513 79.5444 92.3932 79.7439 93.2206 79.1616C94.0477 78.5798 94.2465 77.4375 93.6644 76.6103L90.3885 71.9536L101.192 56.6157C102.943 54.2373 102.313 50.6106 99.8634 48.9617C97.4855 47.2114 93.8595 47.8394 92.2091 50.2881L83.673 62.407L75.15 50.2913C73.4086 47.8164 69.9764 47.2183 67.4962 48.9587C65.0192 50.7014 64.4213 54.1348 66.1634 56.6123L76.9503 71.9473L64.1551 90.1123C62.4105 92.5884 63.0055 96.0217 65.4823 97.7671C67.8685 99.5166 71.4735 98.884 73.1378 96.4402L83.6661 81.4939L94.1791 96.437C95.8334 98.8821 99.4476 99.5171 101.833 97.7695C104.283 96.1208 104.916 92.4941 103.165 90.1157L98.5834 83.6023Z" fill="#6D55BD"/>
<path d="M53.9978 47.9592C50.969 47.9592 48.5046 50.4233 48.5046 53.4524V80.8267C48.5046 82.6961 47.9719 84.8753 44.0222 86.8645C42.8123 87.4739 41.4377 87.7827 39.9214 87.7827C38.2646 87.7805 36.8284 87.3762 35.531 86.5474C32.4402 84.5728 31.8193 82.9055 31.8193 80.8552V68.1152C31.8193 67.104 30.9998 66.2842 29.9883 66.2842C28.9768 66.2842 28.1572 67.104 28.1572 68.1152V80.8555C28.1572 84.5891 29.7727 87.2144 33.5593 89.6338C35.4622 90.8494 37.5417 91.4419 39.9368 91.4451C42.0151 91.4451 43.9438 91.0044 45.6694 90.1355C50.0415 87.9334 52.1668 84.8887 52.1668 80.8269V53.4524C52.1668 52.4426 52.988 51.6213 53.9978 51.6213C55.0076 51.6213 55.8289 52.4426 55.8289 53.4524V80.8267C55.8289 86.3291 52.9648 90.5615 47.3164 93.406C45.075 94.5347 42.592 95.1069 39.9368 95.1069H39.9114C36.8608 95.1028 34.0603 94.2996 31.5874 92.7195C26.7485 89.6279 24.4946 85.8582 24.4946 80.8552V53.4524C24.4946 52.4426 25.3159 51.6213 26.3257 51.6213C27.3354 51.6213 28.1567 52.4426 28.1567 53.4524V59.5703C28.1567 60.5815 28.9763 61.4014 29.9878 61.4014C30.9993 61.4014 31.8188 60.5815 31.8188 59.5703V53.4524C31.8188 50.4233 29.3545 47.9592 26.3257 47.9592C23.2969 47.9592 20.8325 50.4233 20.8325 53.4524V80.8555C20.8325 87.0523 23.7876 92.0823 29.6157 95.8057C32.6853 97.7671 36.1477 98.7642 39.9087 98.7693H39.9365C43.1692 98.7693 46.2063 98.0654 48.9634 96.677C57.6643 92.2949 59.4907 85.6389 59.4907 80.8269V53.4524C59.491 50.4233 57.0266 47.9592 53.9978 47.9592V47.9592Z" fill="#6D55BD"/>
<path d="M115.845 13.1836H9.15527C4.10693 13.1836 0 17.2905 0 22.3389V102.661C0 107.709 4.10693 111.816 9.15527 111.816H115.845C120.893 111.816 125 107.709 125 102.661V22.3389C125 17.2905 120.893 13.1836 115.845 13.1836ZM115.845 108.154H9.15527C6.12646 108.154 3.66211 105.69 3.66211 102.661V38.6963H106.934C107.945 38.6963 108.765 37.8765 108.765 36.8652C108.765 35.854 107.945 35.0342 106.934 35.0342H3.66211V22.3389C3.66211 19.3098 6.12646 16.8457 9.15527 16.8457H115.845C118.874 16.8457 121.338 19.3098 121.338 22.3389V35.0342H115.479C114.467 35.0342 113.647 35.854 113.647 36.8652C113.647 37.8765 114.467 38.6963 115.479 38.6963H121.338V102.661C121.338 105.69 118.874 108.154 115.845 108.154Z" fill="#FBFBFA"/>
</svg>
