<svg width="50" height="30" viewBox="0 0 50 30" fill="none" xmlns="http://www.w3.org/2000/svg">
<path d="M25.3018 30C32.5351 30 29.9559 25.604 30.5143 24.34C30.5059 23.396 30.4976 22.488 30.5309 21.936C30.9892 22.06 32.0705 22.586 34.3038 24.67C37.7517 28.01 38.6329 30 41.4183 30H46.5453C48.1703 30 49.0161 29.354 49.439 28.812C49.8474 28.288 50.2474 27.368 49.8099 25.936C48.6661 22.488 41.9954 16.534 41.5808 15.906C41.6433 15.79 41.7433 15.636 41.7954 15.556H41.7912C43.1079 13.886 48.1328 6.658 48.8724 3.766C48.8745 3.762 48.8766 3.756 48.8766 3.75C49.2765 2.43 48.9099 1.574 48.5307 1.09C47.9599 0.366 47.0516 0 45.8245 0H40.6975C38.9808 0 37.6788 0.83 37.0204 2.344C35.9184 5.034 32.8226 10.566 30.5018 12.524C30.4309 9.75 30.4788 7.632 30.5163 6.058C30.5913 2.988 30.833 0 27.5143 0H19.456C17.3769 0 15.3873 2.18 17.5415 4.768C19.4248 7.036 18.2185 8.3 18.6248 14.592C17.0415 12.962 14.2248 8.56 12.2332 2.934C11.6749 1.412 10.829 0.00199986 8.44782 0.00199986H3.3208C1.24165 0.00199986 0 1.09 0 2.912C0 7.004 9.43531 30 25.3018 30ZM8.44782 3.002C8.8999 3.002 8.94574 3.002 9.28115 3.916C11.3207 9.682 15.8957 18.214 19.2373 18.214C21.7477 18.214 21.7477 15.744 21.7477 14.814L21.7456 7.41C21.6081 4.96 20.6789 3.74 20.0685 3L27.3768 3.008C27.381 3.042 27.3351 11.198 27.3976 13.174C27.3976 15.98 29.7184 17.588 33.3413 14.068C37.1642 9.926 39.8079 3.734 39.9142 3.482C40.0704 3.122 40.2058 3 40.6975 3H45.8245H45.8453C45.8433 3.006 45.8433 3.012 45.8412 3.018C45.3724 5.118 40.7454 11.81 39.1975 13.888C39.1725 13.92 39.1496 13.954 39.1267 13.988C38.4454 15.056 37.8913 16.236 39.2204 17.896H39.2225C39.3433 18.036 39.6579 18.364 40.1162 18.82C41.5412 20.232 46.4287 25.06 46.862 26.98C46.5745 27.024 46.262 26.992 41.4183 27.002C40.3871 27.002 39.5808 25.522 36.5038 22.542C33.7371 19.958 31.9413 18.902 30.3059 18.902C27.131 18.902 27.3622 21.376 27.3914 24.368C27.4018 27.612 27.381 26.586 27.4039 26.79C27.2185 26.86 26.6872 27 25.3018 27C12.0832 27 3.47496 6.858 3.14372 3.008C3.2583 2.998 4.83536 3.004 8.44782 3.002Z" fill="#6D55BD"/>
</svg>
