<svg width="38" height="28" viewBox="0 0 38 28" fill="none" xmlns="http://www.w3.org/2000/svg">
<g filter="url(#filter0_d)">
<path d="M19.1811 20C23.521 20 21.9736 17.0693 22.3085 16.2267C22.3035 15.5973 22.2985 14.992 22.3185 14.624C22.5935 14.7067 23.2423 15.0573 24.5823 16.4467C26.651 18.6733 27.1797 20 28.851 20H31.9272C32.9022 20 33.4097 19.5693 33.6634 19.208C33.9084 18.8587 34.1484 18.2453 33.8859 17.2907C33.1997 14.992 29.1972 11.0227 28.9485 10.604C28.986 10.5267 29.046 10.424 29.0772 10.3707H29.0747C29.8647 9.25733 32.8797 4.43867 33.3234 2.51067C33.3247 2.508 33.3259 2.504 33.3259 2.5C33.5659 1.62 33.3459 1.04933 33.1184 0.726667C32.7759 0.244 32.2309 0 31.4947 0H28.4185C27.3885 0 26.6073 0.553333 26.2123 1.56267C25.551 3.356 23.6935 7.044 22.301 8.34933C22.2585 6.5 22.2873 5.088 22.3098 4.03867C22.3548 1.992 22.4998 0 20.5086 0H15.6736C14.4261 0 13.2324 1.45333 14.5249 3.17867C15.6549 4.69067 14.9311 5.53333 15.1749 9.728C14.2249 8.64133 12.5349 5.70667 11.3399 1.956C11.0049 0.941333 10.4974 0.00133324 9.06869 0.00133324H5.99248C4.74499 0.00133324 4 0.726666 4 1.94133C4 4.66933 9.66119 20 19.1811 20V20ZM9.06869 2.00133C9.33994 2.00133 9.36744 2.00133 9.56869 2.61067C10.7924 6.45467 13.5374 12.1427 15.5424 12.1427C17.0486 12.1427 17.0486 10.496 17.0486 9.876L17.0474 4.94C16.9649 3.30667 16.4074 2.49333 16.0411 2L20.4261 2.00533C20.4286 2.028 20.4011 7.46533 20.4386 8.78267C20.4386 10.6533 21.8311 11.7253 24.0048 9.37867C26.2985 6.61733 27.8847 2.48933 27.9485 2.32133C28.0422 2.08133 28.1235 2 28.4185 2H31.4947H31.5072C31.5059 2.004 31.5059 2.008 31.5047 2.012C31.2235 3.412 28.4472 7.87333 27.5185 9.25867C27.5035 9.28 27.4897 9.30267 27.476 9.32533C27.0672 10.0373 26.7348 10.824 27.5322 11.9307H27.5335C27.606 12.024 27.7947 12.2427 28.0697 12.5467C28.9247 13.488 31.8572 16.7067 32.1172 17.9867C31.9447 18.016 31.7572 17.9947 28.851 18.0013C28.2322 18.0013 27.7485 17.0147 25.9023 15.028C24.2423 13.3053 23.1648 12.6013 22.1836 12.6013C20.2786 12.6013 20.4173 14.2507 20.4348 16.2453C20.4411 18.408 20.4286 17.724 20.4423 17.86C20.3311 17.9067 20.0123 18 19.1811 18C11.2499 18 6.08498 4.572 5.88623 2.00533C5.95498 1.99867 6.90122 2.00267 9.06869 2.00133V2.00133Z" fill="black"/>
</g>
<defs>
<filter id="filter0_d" x="0" y="0" width="38" height="28" filterUnits="userSpaceOnUse" color-interpolation-filters="sRGB">
<feFlood flood-opacity="0" result="BackgroundImageFix"/>
<feColorMatrix in="SourceAlpha" type="matrix" values="0 0 0 0 0 0 0 0 0 0 0 0 0 0 0 0 0 0 127 0"/>
<feOffset dy="4"/>
<feGaussianBlur stdDeviation="2"/>
<feColorMatrix type="matrix" values="0 0 0 0 0 0 0 0 0 0 0 0 0 0 0 0 0 0 0.25 0"/>
<feBlend mode="normal" in2="BackgroundImageFix" result="effect1_dropShadow"/>
<feBlend mode="normal" in="SourceGraphic" in2="effect1_dropShadow" result="shape"/>
</filter>
</defs>
</svg>
